<svg xmlns="http://www.w3.org/2000/svg" xmlns:xlink="http://www.w3.org/1999/xlink" width="320" height="80" viewBox="0 0 320 80">
  <defs>
    <clipPath id="clip-path">
      <path id="Path_2" data-name="Path 2" d="M53.852,161.559H86.134v65.675H53.852Zm0,0" transform="translate(-53.852 -161.559)" fill="#fff"/>
    </clipPath>
    <clipPath id="clip-path-2">
      <path id="Path_4" data-name="Path 4" d="M105,161.559h32.812v65.675H105Zm0,0" transform="translate(-105 -161.559)" fill="#fff"/>
    </clipPath>
  </defs>
  <g id="surface1" transform="translate(-53.852 -156.589)">
    <g id="Group_1" data-name="Group 1" transform="translate(53.852 162.472)" clip-path="url(#clip-path)">
      <path id="Path_1" data-name="Path 1" d="M85.727,226.8a26.782,26.782,0,0,1-4.547-1.582.387.387,0,0,0-.074-.111l-.019-.019c-.074-2.566-2.081-5.244-3.892-6.918-.246-.222-.771-.092-.734.3a10.272,10.272,0,0,0,2.527,5.656,30.531,30.531,0,0,1-6.624-5.059.372.372,0,0,0,.056-.2,14.041,14.041,0,0,0-.827-5.041c-.427-1.17-.989-2.714-2.151-3.33a.393.393,0,0,0-.581.338,12.129,12.129,0,0,0,1.328,5.836c-.334-.388-.655-.8-.971-1.207a50.961,50.961,0,0,1-5.318-8.536.2.2,0,0,0,.019-.148c-.019-.055-.019-.111-.037-.166a.279.279,0,0,0,.167-.129c1.872-2.751,1.575-6.844.729-9.9a.417.417,0,0,0-.748-.092c-1.723,2.493-1.742,5.355-1.18,8.148a36.213,36.213,0,0,1-2.244-7.219,25.021,25.021,0,0,1-.432-3.1.36.36,0,0,0,.186-.055c2.754-1.656,4.287-5.336,4.719-8.37a.429.429,0,0,0-.711-.407,16.761,16.761,0,0,0-4.287,6.451,29.063,29.063,0,0,1,2.508-11.172.354.354,0,0,0,.242.092c3.219-.148,6.271-2.96,7.9-5.521a.424.424,0,0,0-.469-.615,20.574,20.574,0,0,0-6.4,3.422,49.473,49.473,0,0,1,6.512-9.374H70.4c1.589-.781,3.442-1.429,4.733-2.677a11.418,11.418,0,0,0,2.285-3.94c.186-.449-.376-.689-.711-.486a.2.2,0,0,0-.111-.018,6.362,6.362,0,0,0-3.767,1.729c-1.138,1.114-1.681,2.622-2.527,3.945A45.223,45.223,0,0,0,65.08,174.1c.451-3.441,1.031-7.121.13-10.506a.457.457,0,0,0-.822-.111,10.279,10.279,0,0,0-.149,12,37.6,37.6,0,0,0-3.823,9.054c-.074-1.341-.186-2.659-.334-3.982-.093-.874.093-2.622-.674-3.232a.464.464,0,0,0-.525-.074c-2.9,1.748-1.649,8.4.859,9.965.019.018.037.018.074.018a28.109,28.109,0,0,0-.372,7.306v.018a.234.234,0,0,0,.019.111,25.009,25.009,0,0,0,.353,2.6c.116.615.265,1.212.413,1.8a29.381,29.381,0,0,0-2.3-3.251,6.557,6.557,0,0,0-3.46-2.456.444.444,0,0,0-.543.536,9.5,9.5,0,0,0,6.628,7.182.289.289,0,0,0,.223-.037,44.577,44.577,0,0,0,4.324,9.572,15.077,15.077,0,0,0-2.322-1.577c-1.105-.615-2.657-1.563-3.948-1.156a.456.456,0,0,0-.321.541,6.775,6.775,0,0,0,8.105,4.61h.019c.771,1.151,1.593,2.271,2.434,3.33a37.293,37.293,0,0,0,4.478,4.8,12.739,12.739,0,0,0-6.8-1.059.43.43,0,0,0-.3.726,8.6,8.6,0,0,0,9.025,2.025.256.256,0,0,0,.074-.055,21.94,21.94,0,0,0,10.107,4.388C85.88,227.264,86.01,226.876,85.727,226.8ZM73.3,164.193c-.056.111-.093.2-.149.314-.13.111-.26.227-.395.356A6.709,6.709,0,0,1,73.3,164.193Zm0,0" transform="translate(-53.839 -161.553)" fill="#fff"/>
    </g>
    <g id="Group_2" data-name="Group 2" transform="translate(114.672 162.472)" clip-path="url(#clip-path-2)">
      <path id="Path_3" data-name="Path 3" d="M105.982,227.227a21.92,21.92,0,0,0,10.107-4.388c.019.018.06.037.079.055a8.6,8.6,0,0,0,9.02-2.025.429.429,0,0,0-.3-.726,13.119,13.119,0,0,0-6.8,1.059,36.08,36.08,0,0,0,4.473-4.8c.841-1.077,1.649-2.2,2.434-3.33h.019a6.789,6.789,0,0,0,8.105-4.61.448.448,0,0,0-.316-.541c-1.3-.425-2.847.523-3.953,1.156a16.8,16.8,0,0,0-2.322,1.577,44.756,44.756,0,0,0,4.324-9.572.3.3,0,0,0,.228.037,9.5,9.5,0,0,0,6.624-7.177.448.448,0,0,0-.539-.541,6.443,6.443,0,0,0-3.465,2.456,30.012,30.012,0,0,0-2.3,3.251c.153-.592.283-1.207.413-1.8.167-.874.279-1.729.358-2.6a.234.234,0,0,0,.019-.111v-.018a28.151,28.151,0,0,0-.376-7.306c.019,0,.037-.018.074-.018,2.508-1.563,3.762-8.217.859-9.965a.427.427,0,0,0-.52.074c-.771.634-.581,2.358-.674,3.232-.153,1.323-.265,2.659-.339,3.982a38.024,38.024,0,0,0-3.818-9.054,10.315,10.315,0,0,0-.149-12.014.459.459,0,0,0-.827.111c-.9,3.385-.316,7.066.13,10.506a45.21,45.21,0,0,0-5.239-6.8c-.822-1.323-1.366-2.83-2.527-3.945a6.362,6.362,0,0,0-3.762-1.729.237.237,0,0,0-.111.018c-.339-.2-.883.037-.715.486a11.418,11.418,0,0,0,2.285,3.94c1.291,1.249,3.145,1.9,4.738,2.677h.019a49.474,49.474,0,0,1,6.512,9.374,20.574,20.574,0,0,0-6.4-3.422.42.42,0,0,0-.469.615c1.612,2.543,4.682,5.373,7.9,5.521a.392.392,0,0,0,.242-.092,29.406,29.406,0,0,1,2.508,11.172,16.75,16.75,0,0,0-4.283-6.451.431.431,0,0,0-.715.407c.432,3.034,1.969,6.715,4.719,8.37a.417.417,0,0,0,.186.055,25.912,25.912,0,0,1-.427,3.1,39.711,39.711,0,0,1-2.248,7.219c.562-2.812.543-5.656-1.18-8.148a.417.417,0,0,0-.748.092c-.845,3.052-1.143,7.163.729,9.9a.343.343,0,0,0,.167.129c-.019.055-.019.111-.037.166a.2.2,0,0,0,.019.148,51.707,51.707,0,0,1-5.314,8.536c-.321.407-.636.818-.975,1.207a12.514,12.514,0,0,0,1.328-5.836.392.392,0,0,0-.581-.338c-1.143.615-1.7,2.16-2.151,3.33a13.975,13.975,0,0,0-.827,5.041.375.375,0,0,0,.06.2,30.225,30.225,0,0,1-6.628,5.059,10.112,10.112,0,0,0,2.527-5.656c.056-.388-.488-.518-.729-.3-1.816,1.674-3.818,4.351-3.9,6.918l-.019.019a.387.387,0,0,0-.074.111,28.5,28.5,0,0,1-4.547,1.582C105.568,226.876,105.7,227.264,105.982,227.227Zm12.843-62.382c-.13-.111-.265-.227-.395-.356-.056-.111-.093-.2-.149-.3A8.265,8.265,0,0,1,118.825,164.845Zm0,0" transform="translate(-104.867 -161.553)" fill="#fff"/>
    </g>
    <g id="Group_4" data-name="Group 4" transform="translate(86.368 156.589)">
      <g id="Group_3" data-name="Group 3">
        <path id="Path_5" data-name="Path 5" d="M2.337,4.441a.652.652,0,0,1-.557-.277,1.24,1.24,0,0,1-.186-.684c.023-.444.111-.708.26-.8a1.888,1.888,0,0,1,.836-.129,3.251,3.251,0,0,0,1.9-.444A1.922,1.922,0,0,0,5.347.963a9.185,9.185,0,0,0,.2-1.776V-18.2a9.278,9.278,0,0,0-.2-1.776A1.869,1.869,0,0,0,4.585-21.1a3.171,3.171,0,0,0-1.9-.462H2.43a1,1,0,0,1-.632-.148,1.292,1.292,0,0,1-.2-.777,1.2,1.2,0,0,1,.186-.684.652.652,0,0,1,.557-.277q2.9.132,5.239.129h6.856a17.264,17.264,0,0,1,7.673,1.683,13.157,13.157,0,0,1,5.462,4.846,13.54,13.54,0,0,1,2.007,7.436,12.438,12.438,0,0,1-2.267,7.565A13.707,13.707,0,0,1,21.4,2.813a20.072,20.072,0,0,1-7.748,1.5H7.576Q5.235,4.311,2.337,4.441ZM14.3,2.684q5.142,0,7.543-3.163t2.4-8.879a15.14,15.14,0,0,0-1.3-6.4,9.964,9.964,0,0,0-3.753-4.4,10.6,10.6,0,0,0-5.853-1.591L9.9-21.714V-.295a2.508,2.508,0,0,0,1.04,2.349A6.746,6.746,0,0,0,14.3,2.684Zm0,0" transform="translate(-1.594 23.453)" fill="#fff"/>
      </g>
    </g>
    <g id="Group_6" data-name="Group 6" transform="translate(86.772 208.288)">
      <g id="Group_5" data-name="Group 5">
        <path id="Path_6" data-name="Path 6" d="M13.315,4.77Q11.992,1.183,9.135-6.662T4.954-18.019a8.53,8.53,0,0,0-1.449-2.627,3.794,3.794,0,0,0-2.062-1A4.59,4.59,0,0,0,.9-21.756a.653.653,0,0,1-.464-.259,1.408,1.408,0,0,1-.111-.647.738.738,0,0,1,.279-.684,1.785,1.785,0,0,1,.91-.185,10.007,10.007,0,0,1,5.017,1.017,6.749,6.749,0,0,1,2.731,3.588L15.638-1.852h.13l6.076-17.554a3.961,3.961,0,0,0,.26-1.147.76.76,0,0,0-.5-.8,5,5,0,0,0-1.691-.2h-.26a1,1,0,0,1-.632-.148,1.292,1.292,0,0,1-.2-.777A1.2,1.2,0,0,1,19-23.161a.652.652,0,0,1,.557-.277q2.857.132,4.794.129c.557,0,1.626-.028,3.214-.092l.929-.037a.646.646,0,0,1,.576.277,1.139,1.139,0,0,1,.2.684,1.236,1.236,0,0,1-.223.777.927.927,0,0,1-.613.148,5.575,5.575,0,0,0-2.88.61,4.75,4.75,0,0,0-1.691,2.368q-1.324,3.593-4.255,11.635T15.378,4.77Zm0,0" transform="translate(-0.328 23.531)" fill="#fff"/>
      </g>
    </g>
    <g id="Group_8" data-name="Group 8" transform="translate(179.191 170.615)">
      <g id="Group_7" data-name="Group 7" transform="translate(0)">
        <path id="Path_7" data-name="Path 7" d="M2.337,4.441a.652.652,0,0,1-.557-.277,1.24,1.24,0,0,1-.186-.684c.023-.444.111-.708.26-.8a1.888,1.888,0,0,1,.836-.129,3.251,3.251,0,0,0,1.9-.444A1.922,1.922,0,0,0,5.347.963a9.185,9.185,0,0,0,.2-1.776V-18.2a9.278,9.278,0,0,0-.2-1.776A1.869,1.869,0,0,0,4.585-21.1a3.171,3.171,0,0,0-1.9-.462H2.43a1,1,0,0,1-.632-.148,1.292,1.292,0,0,1-.2-.777,1.2,1.2,0,0,1,.186-.684.652.652,0,0,1,.557-.277q2.9.132,5.239.129h6.856a17.264,17.264,0,0,1,7.673,1.683,13.157,13.157,0,0,1,5.462,4.846,13.54,13.54,0,0,1,2.007,7.436,12.438,12.438,0,0,1-2.267,7.565A13.707,13.707,0,0,1,21.4,2.813a20.072,20.072,0,0,1-7.748,1.5H7.576Q5.235,4.311,2.337,4.441ZM14.3,2.684q5.142,0,7.543-3.163t2.4-8.879a15.14,15.14,0,0,0-1.3-6.4,9.964,9.964,0,0,0-3.753-4.4,10.6,10.6,0,0,0-5.853-1.591L9.9-21.714V-.295a2.508,2.508,0,0,0,1.04,2.349A6.746,6.746,0,0,0,14.3,2.684Zm0,0" transform="translate(-1.594 23.453)" fill="#fff"/>
      </g>
    </g>
    <g id="Group_10" data-name="Group 10" transform="translate(211.116 178.014)">
      <g id="Group_9" data-name="Group 9">
        <path id="Path_8" data-name="Path 8" d="M11.772,3.68A10.06,10.06,0,0,1,6.439,2.256,10.086,10.086,0,0,1,2.816-1.5a10.091,10.091,0,0,1-1.3-4.976A10.405,10.405,0,0,1,3.058-12.19a10.632,10.632,0,0,1,3.92-3.718A9.96,9.96,0,0,1,11.772-17.2a9.983,9.983,0,0,1,5.314,1.424,10.116,10.116,0,0,1,3.642,3.773,10.059,10.059,0,0,1,1.3,4.957,10.345,10.345,0,0,1-1.579,5.734A10.748,10.748,0,0,1,16.509,2.4,9.884,9.884,0,0,1,11.772,3.68Zm0-1.609A4.617,4.617,0,0,0,16.138-.463a13.67,13.67,0,0,0,1.393-6.585A11.827,11.827,0,0,0,16.1-13.189a4.716,4.716,0,0,0-4.329-2.4,4.63,4.63,0,0,0-4.4,2.5,13.637,13.637,0,0,0-1.356,6.53A12.42,12.42,0,0,0,7.405-.352,4.7,4.7,0,0,0,11.772,2.071Zm0,0" transform="translate(-1.516 17.203)" fill="#fff"/>
      </g>
    </g>
    <g id="Group_12" data-name="Group 12" transform="translate(234.418 166.453)">
      <g id="Group_11" data-name="Group 11">
        <path id="Path_9" data-name="Path 9" d="M1.55,5.087a.618.618,0,0,1-.5-.259.933.933,0,0,1-.2-.61c.037-.379.116-.61.242-.684a1.832,1.832,0,0,1,.78-.111,2.622,2.622,0,0,0,1.616-.388,1.451,1.451,0,0,0,.576-.925A10.653,10.653,0,0,0,4.151.444V-20.92a13.768,13.768,0,0,0-.074-1.665,1.353,1.353,0,0,0-.539-.925A2.584,2.584,0,0,0,1.9-23.917a1.694,1.694,0,0,1-.8-.148c-.177-.1-.26-.338-.26-.721a.87.87,0,0,1,.167-.5.757.757,0,0,1,.539-.277A22.9,22.9,0,0,0,6.306-26.71a4.4,4.4,0,0,1,1.022-.259h.13c.469,0,.706.277.706.832V.444a12.756,12.756,0,0,0,.074,1.665,1.532,1.532,0,0,0,.576.925,2.639,2.639,0,0,0,1.635.388h.26a.877.877,0,0,1,.52.129q.181.132.223.666a1.034,1.034,0,0,1-.186.61.582.582,0,0,1-.52.259C9.047,5,7.514,4.958,6.139,4.958Q4.146,4.958,1.55,5.087Zm0,0" transform="translate(-0.844 26.969)" fill="#fff"/>
      </g>
    </g>
    <g id="Group_14" data-name="Group 14" transform="translate(247.796 178.014)">
      <g id="Group_13" data-name="Group 13">
        <path id="Path_10" data-name="Path 10" d="M11.1,3.68A9.021,9.021,0,0,1,4.061.85,11.018,11.018,0,0,1,1.516-6.789,10.9,10.9,0,0,1,2.983-12.1,10.109,10.109,0,0,1,6.7-15.779,11.038,11.038,0,0,1,11.865-17.2a10.469,10.469,0,0,1,4.849,1.054,3.636,3.636,0,0,1,2.044,3.5,3.77,3.77,0,0,1-.818,2.4,2.616,2.616,0,0,1-2.174,1.017,2.32,2.32,0,0,1-1.431-.444c-.4-.3-.595-.541-.595-.74a2.453,2.453,0,0,1,.39-.388,4.19,4.19,0,0,0,.743-.851,2.087,2.087,0,0,0,.334-1.165,2.372,2.372,0,0,0-1-2.072,4.041,4.041,0,0,0-2.4-.7q-3.386,0-4.589,2.479a14.07,14.07,0,0,0-1.208,6.2A10.236,10.236,0,0,0,7.684-.87,5.175,5.175,0,0,0,12.125,1.5,6.078,6.078,0,0,0,15.358.684a7.933,7.933,0,0,0,2.434-2.479.484.484,0,0,1,.446-.2,1.147,1.147,0,0,1,.483.129.646.646,0,0,1,.353.3.9.9,0,0,1,.13.444.8.8,0,0,1-.13.351,10.814,10.814,0,0,1-3.6,3.256A8.9,8.9,0,0,1,11.1,3.68Zm0,0" transform="translate(-1.516 17.203)" fill="#fff"/>
      </g>
    </g>
    <g id="Group_16" data-name="Group 16" transform="translate(268.686 178.014)">
      <g id="Group_15" data-name="Group 15">
        <path id="Path_11" data-name="Path 11" d="M11.809,3.68A10.747,10.747,0,0,1,6.2,2.293,9.056,9.056,0,0,1,2.7-1.517,11.934,11.934,0,0,1,1.516-6.863a10.848,10.848,0,0,1,1.208-4.976A9.914,9.914,0,0,1,6.179-15.7a9.059,9.059,0,0,1,5.147-1.5,8.407,8.407,0,0,1,6.02,2A8.092,8.092,0,0,1,19.78-9.841a2.22,2.22,0,0,1-.8,1.979,4.133,4.133,0,0,1-2.285.518H6.012A10.958,10.958,0,0,0,7.7-.889,6,6,0,0,0,12.961,1.5,5.988,5.988,0,0,0,16.175.684a8.166,8.166,0,0,0,2.508-2.738.583.583,0,0,1,.427-.222.836.836,0,0,1,.539.185.859.859,0,0,1,.427.777A.88.88,0,0,1,20-.907a9.9,9.9,0,0,1-3.474,3.385A9.288,9.288,0,0,1,11.809,3.68ZM13.184-9.009q2.23,0,2.36-1.85a5.334,5.334,0,0,0-1.1-3.4,3.742,3.742,0,0,0-3.121-1.406,4.562,4.562,0,0,0-3.7,1.776A8.239,8.239,0,0,0,6.012-9.009Zm0,0" transform="translate(-1.516 17.203)" fill="#fff"/>
      </g>
    </g>
    <g id="Group_18" data-name="Group 18" transform="translate(288.962 198.38)">
      <g id="Group_17" data-name="Group 17">
        <path id="Path_12" data-name="Path 12" fill="#fff"/>
      </g>
    </g>
    <g id="Group_20" data-name="Group 20" transform="translate(299.085 178.35)">
      <g id="Group_19" data-name="Group 19" transform="translate(0 0)">
        <path id="Path_13" data-name="Path 13" d="M10.986,3.554Q9.85,1.1,7.79-4.289,7.6-4.733,6.564-7.452A46.782,46.782,0,0,0,4.613-12,7.441,7.441,0,0,0,3.2-14.333a3.27,3.27,0,0,0-1.932-.814,2.136,2.136,0,0,0-.483-.092.58.58,0,0,1-.446-.222,1.727,1.727,0,0,1-.074-.61q0-.534.279-.666a1.913,1.913,0,0,1,.687-.148c.283-.009.469-.018.557-.018a7.693,7.693,0,0,1,4.236.777A6.531,6.531,0,0,1,8.571-13q.035.076,1.709,4.2Q12.3-3.676,13.2-1.847h.13l4.348-11.468A4.222,4.222,0,0,0,17.9-14.37a.636.636,0,0,0-.446-.647A4.1,4.1,0,0,0,16-15.2h-.26a.75.75,0,0,1-.5-.129,1.046,1.046,0,0,1-.2-.647,1.2,1.2,0,0,1,.149-.592.518.518,0,0,1,.464-.3c1.672.088,3.094.129,4.273.129q.7,0,2.731-.074l.929-.055a.523.523,0,0,1,.464.3,1.073,1.073,0,0,1,.186.592c-.028.347-.1.564-.223.647a.844.844,0,0,1-.52.129,4.833,4.833,0,0,0-2.508.536,4.079,4.079,0,0,0-1.5,2.053q-1,2.539-3.772,9.323T12.844,3.554Zm0,0" transform="translate(-0.266 16.919)" fill="#fff"/>
      </g>
    </g>
    <g id="Group_22" data-name="Group 22" transform="translate(324.452 167.674)">
      <g id="Group_21" data-name="Group 21">
        <path id="Path_14" data-name="Path 14" d="M1.925,4.9a.633.633,0,0,1-.52-.259,1,1,0,0,1-.186-.61c.037-.379.121-.61.26-.684a1.981,1.981,0,0,1,.8-.111,2.657,2.657,0,0,0,1.635-.388,1.393,1.393,0,0,0,.539-.925A13.659,13.659,0,0,0,4.526.255V-9.771a13.768,13.768,0,0,0-.074-1.665,1.353,1.353,0,0,0-.539-.925,2.657,2.657,0,0,0-1.635-.388,1.694,1.694,0,0,1-.8-.148c-.177-.111-.26-.356-.26-.74a.87.87,0,0,1,.167-.5.757.757,0,0,1,.539-.277,21.913,21.913,0,0,0,4.756-1.147,4.459,4.459,0,0,1,1-.259h.13c.469,0,.706.277.706.832V.255a10.1,10.1,0,0,0,.093,1.665,1.532,1.532,0,0,0,.576.925,2.6,2.6,0,0,0,1.616.388h.279a.877.877,0,0,1,.52.129,1.025,1.025,0,0,1,.223.666,1.034,1.034,0,0,1-.186.61.582.582,0,0,1-.52.259Q8.572,4.766,6.5,4.768,4.524,4.768,1.925,4.9ZM6.272-20.684a2.943,2.943,0,0,1-2.062-.758,2.5,2.5,0,0,1-.836-1.905,2.247,2.247,0,0,1,1-1.794,3.666,3.666,0,0,1,2.3-.8,2.334,2.334,0,0,1,1.8.777,2.755,2.755,0,0,1,.706,1.942,2.306,2.306,0,0,1-.836,1.794A3.024,3.024,0,0,1,6.272-20.684Zm0,0" transform="translate(-1.219 25.938)" fill="#fff"/>
      </g>
    </g>
    <g id="Group_24" data-name="Group 24" transform="translate(337.117 172.927)">
      <g id="Group_23" data-name="Group 23">
        <path id="Path_15" data-name="Path 15" d="M9.32,4.692a5,5,0,0,1-3.7-1.572A6.214,6.214,0,0,1,4.1-1.393V-14.268l-2.564.092a.537.537,0,0,1-.446-.24.935.935,0,0,1-.167-.555,1.357,1.357,0,0,1,.149-.666.618.618,0,0,1,.464-.333,5.744,5.744,0,0,0,2.4-.98,4.249,4.249,0,0,0,1.263-1.5,25.619,25.619,0,0,0,.966-2.479.926.926,0,0,1,.966-.573,1.248,1.248,0,0,1,.613.166.482.482,0,0,1,.316.444L7.741-15.9l5.147-.3h.093c.381,0,.576.277.576.832a2.438,2.438,0,0,1-.167.906c-.1.273-.223.407-.372.407l-4.924-.129V-.857a4.463,4.463,0,0,0,.595,2.4,2.126,2.126,0,0,0,1.969.962,5.744,5.744,0,0,0,2.415-.481,3.064,3.064,0,0,1,.706-.222.546.546,0,0,1,.464.24,3.9,3.9,0,0,1,.372.629.654.654,0,0,1,.037.222.542.542,0,0,1-.26.388A8.041,8.041,0,0,1,11.977,4.4,10.6,10.6,0,0,1,9.32,4.692Zm0,0" transform="translate(-0.922 21.5)" fill="#fff"/>
      </g>
    </g>
    <g id="Group_26" data-name="Group 26" transform="translate(354.194 178.014)">
      <g id="Group_25" data-name="Group 25">
        <path id="Path_16" data-name="Path 16" d="M7.155,3.68A6.123,6.123,0,0,1,2.882,2.2,4.864,4.864,0,0,1,1.266-1.517,4.835,4.835,0,0,1,3.105-5.661,9.7,9.7,0,0,1,7.49-7.455,63.2,63.2,0,0,1,14.1-8.1v-3.459a4.509,4.509,0,0,0-1.078-3.256,4.652,4.652,0,0,0-3.456-1.11,3.645,3.645,0,0,0-2.378.832,2.738,2.738,0,0,0-1,2.22,1.984,1.984,0,0,0,.316,1.165,4.135,4.135,0,0,0,.706.777,1.984,1.984,0,0,1,.39.333c0,.185-.186.421-.557.7a2.2,2.2,0,0,1-1.338.407,2.555,2.555,0,0,1-2.1-.962,3.6,3.6,0,0,1-.762-2.294,3.577,3.577,0,0,1,2.044-3.367A10.382,10.382,0,0,1,9.831-17.2,11.261,11.261,0,0,1,15.7-15.834q2.264,1.353,2.267,5.031V-.611a3.667,3.667,0,0,0,.576,1.757,1.885,1.885,0,0,0,1.709.832.8.8,0,0,1,.5.129.721.721,0,0,1,.167.573c0,.347-.274.6-.818.758a5.776,5.776,0,0,1-1.6.24,4.809,4.809,0,0,1-2.954-.962A3.534,3.534,0,0,1,14.1.147a6.2,6.2,0,0,1-2.843,2.627A9.531,9.531,0,0,1,7.155,3.68ZM8.567,1.331a5.343,5.343,0,0,0,2.75-.74,5.553,5.553,0,0,0,2.025-2.053A5.552,5.552,0,0,0,14.1-4.329v-2.5q-4.626.354-6.521,1.5A3.959,3.959,0,0,0,5.706-1.647Q5.706,1.336,8.567,1.331Zm0,0" transform="translate(-1.266 17.203)" fill="#fff"/>
      </g>
    </g>
    <g id="Group_28" data-name="Group 28" transform="translate(178.555 216.702)">
      <g id="Group_27" data-name="Group 27" transform="translate(0)">
        <path id="Path_17" data-name="Path 17" d="M1.059-8.047V1.479H2.67V-1.392h2.2c2.406,0,3.786-1.253,3.786-3.4,0-2.072-1.38-3.256-3.786-3.256ZM2.67-6.6H4.8c1.477,0,2.309.6,2.309,1.85,0,1.295-.831,1.919-2.309,1.919H2.67Zm0,0" transform="translate(-1.059 8.047)" fill="#fff"/>
      </g>
    </g>
    <g id="Group_30" data-name="Group 30" transform="translate(193.764 216.702)">
      <g id="Group_29" data-name="Group 29" transform="translate(0)">
        <path id="Path_18" data-name="Path 18" d="M2.67,1.479V-8.047H1.059V1.479Zm0,0" transform="translate(-1.059 8.047)" fill="#fff"/>
      </g>
    </g>
    <g id="Group_32" data-name="Group 32" transform="translate(203.153 216.702)">
      <g id="Group_31" data-name="Group 31">
        <path id="Path_19" data-name="Path 19" d="M8.434-6.891V-8.047H.6V-6.6H6.26L.426.323V1.479H8.5V.036H2.614Zm0,0" transform="translate(-0.426 8.047)" fill="#fff"/>
      </g>
    </g>
    <g id="Group_34" data-name="Group 34" transform="translate(218.266 216.702)">
      <g id="Group_33" data-name="Group 33" transform="translate(0)">
        <path id="Path_20" data-name="Path 20" d="M8.434-6.891V-8.047H.6V-6.6H6.26L.426.323V1.479H8.5V.036H2.614Zm0,0" transform="translate(-0.426 8.047)" fill="#fff"/>
      </g>
    </g>
    <g id="Group_36" data-name="Group 36" transform="translate(234.132 216.702)">
      <g id="Group_35" data-name="Group 35" transform="translate(0)">
        <path id="Path_21" data-name="Path 21" d="M7.891-6.6V-8.047H1.059V1.479h7V.036H2.67V-2.59H7.343V-4.033H2.67V-6.6Zm0,0" transform="translate(-1.059 8.047)" fill="#fff"/>
      </g>
    </g>
    <g id="Group_38" data-name="Group 38" transform="translate(249.109 216.702)">
      <g id="Group_37" data-name="Group 37" transform="translate(0)">
        <path id="Path_22" data-name="Path 22" d="M7.125,1.479h1.83L6.814-1.707A3.054,3.054,0,0,0,8.792-4.791c0-2.072-1.407-3.256-3.855-3.256H1.059V1.479H2.67V-1.392H4.937c.153,0,.3,0,.441-.014ZM2.67-2.835V-6.6H4.937c1.477,0,2.327.6,2.327,1.85,0,1.295-.85,1.919-2.327,1.919Zm0,0" transform="translate(-1.059 8.047)" fill="#fff"/>
      </g>
    </g>
    <g id="Group_40" data-name="Group 40" transform="translate(265.001 216.702)">
      <g id="Group_39" data-name="Group 39" transform="translate(0)">
        <path id="Path_23" data-name="Path 23" d="M2.67,1.479V-8.047H1.059V1.479Zm0,0" transform="translate(-1.059 8.047)" fill="#fff"/>
      </g>
    </g>
    <g id="Group_42" data-name="Group 42" transform="translate(273.898 216.702)">
      <g id="Group_41" data-name="Group 41" transform="translate(0)">
        <path id="Path_24" data-name="Path 24" d="M7.434-.671l.915,2.15h1.723L5.888-8.047H4.234L.012,1.479H1.693l.915-2.15ZM6.817-2.1H3.207L5.014-6.331Zm0,0" transform="translate(-0.012 8.047)" fill="#fff"/>
      </g>
    </g>
  </g>
</svg>
